<svg xmlns="http://www.w3.org/2000/svg" viewBox="0 0 1200 630" width="1200" height="630">

  <!-- Background -->
  <rect width="1200" height="630" fill="#111111"/>

  <!-- Left branding panel -->
  <rect x="0" y="0" width="460" height="630" fill="#0d0d0d"/>
  <rect x="458" y="0" width="2" height="630" fill="#1D9E75" opacity="0.5"/>

  <!-- Brand -->
  <text x="60" y="160" font-family="system-ui,-apple-system,sans-serif" font-size="64">🐍</text>
  <text x="60" y="238" font-family="system-ui,-apple-system,sans-serif" font-size="56" font-weight="700" fill="#f0f0f0">Snake</text>
  <text x="60" y="298" font-family="system-ui,-apple-system,sans-serif" font-size="56" font-weight="700" fill="#1D9E75">Game</text>

  <!-- Tagline -->
  <text x="60" y="350" font-family="system-ui,-apple-system,sans-serif" font-size="19" fill="#888888">Classic arcade. Play instantly in</text>
  <text x="60" y="376" font-family="system-ui,-apple-system,sans-serif" font-size="19" fill="#888888">any browser. No install needed.</text>

  <!-- Feature pills -->
  <rect x="60"  y="408" width="114" height="30" rx="15" fill="#1D9E75" opacity="0.15"/>
  <text x="117" y="428" font-family="system-ui,-apple-system,sans-serif" font-size="13" fill="#1D9E75" text-anchor="middle">Zero setup</text>

  <rect x="186" y="408" width="104" height="30" rx="15" fill="#1D9E75" opacity="0.15"/>
  <text x="238" y="428" font-family="system-ui,-apple-system,sans-serif" font-size="13" fill="#1D9E75" text-anchor="middle">Dark mode</text>

  <rect x="60"  y="450" width="118" height="30" rx="15" fill="#1D9E75" opacity="0.15"/>
  <text x="119" y="470" font-family="system-ui,-apple-system,sans-serif" font-size="13" fill="#1D9E75" text-anchor="middle">Works offline</text>

  <rect x="190" y="450" width="124" height="30" rx="15" fill="#1D9E75" opacity="0.15"/>
  <text x="252" y="470" font-family="system-ui,-apple-system,sans-serif" font-size="13" fill="#1D9E75" text-anchor="middle">Mobile-friendly</text>

  <!-- URL -->
  <text x="60" y="578" font-family="monospace,system-ui" font-size="14" fill="#444444">bodhiprotocol.github.io/snake-game</text>

  <!-- ── Right side: game mockup ── -->

  <!-- Score bar -->
  <text x="510" y="76" font-family="system-ui,-apple-system,sans-serif" font-size="15" fill="#666666">Score:</text>
  <text x="564" y="76" font-family="monospace" font-size="15" font-weight="700" fill="#f0f0f0">7</text>
  <text x="620" y="76" font-family="system-ui,-apple-system,sans-serif" font-size="15" fill="#666666">Best:</text>
  <text x="670" y="76" font-family="monospace" font-size="15" font-weight="700" fill="#f0f0f0">12</text>

  <!-- Game board -->
  <rect x="500" y="88" width="420" height="420" rx="8" fill="#1a1a1a" stroke="#2a2a2a" stroke-width="1"/>

  <!-- Grid dots (20×20 subtle) -->
  <g fill="#ffffff" opacity="0.035">
    <rect x="502" y="90"  width="18" height="18" rx="2"/><rect x="523" y="90"  width="18" height="18" rx="2"/><rect x="544" y="90"  width="18" height="18" rx="2"/><rect x="565" y="90"  width="18" height="18" rx="2"/><rect x="586" y="90"  width="18" height="18" rx="2"/><rect x="607" y="90"  width="18" height="18" rx="2"/><rect x="628" y="90"  width="18" height="18" rx="2"/><rect x="649" y="90"  width="18" height="18" rx="2"/><rect x="670" y="90"  width="18" height="18" rx="2"/><rect x="691" y="90"  width="18" height="18" rx="2"/><rect x="712" y="90"  width="18" height="18" rx="2"/><rect x="733" y="90"  width="18" height="18" rx="2"/><rect x="754" y="90"  width="18" height="18" rx="2"/><rect x="775" y="90"  width="18" height="18" rx="2"/><rect x="796" y="90"  width="18" height="18" rx="2"/><rect x="817" y="90"  width="18" height="18" rx="2"/><rect x="838" y="90"  width="18" height="18" rx="2"/><rect x="859" y="90"  width="18" height="18" rx="2"/><rect x="880" y="90"  width="18" height="18" rx="2"/><rect x="901" y="90"  width="18" height="18" rx="2"/>
    <rect x="502" y="111" width="18" height="18" rx="2"/><rect x="523" y="111" width="18" height="18" rx="2"/><rect x="544" y="111" width="18" height="18" rx="2"/><rect x="565" y="111" width="18" height="18" rx="2"/><rect x="586" y="111" width="18" height="18" rx="2"/><rect x="607" y="111" width="18" height="18" rx="2"/><rect x="628" y="111" width="18" height="18" rx="2"/><rect x="649" y="111" width="18" height="18" rx="2"/><rect x="670" y="111" width="18" height="18" rx="2"/><rect x="691" y="111" width="18" height="18" rx="2"/><rect x="712" y="111" width="18" height="18" rx="2"/><rect x="733" y="111" width="18" height="18" rx="2"/><rect x="754" y="111" width="18" height="18" rx="2"/><rect x="775" y="111" width="18" height="18" rx="2"/><rect x="796" y="111" width="18" height="18" rx="2"/><rect x="817" y="111" width="18" height="18" rx="2"/><rect x="838" y="111" width="18" height="18" rx="2"/><rect x="859" y="111" width="18" height="18" rx="2"/><rect x="880" y="111" width="18" height="18" rx="2"/><rect x="901" y="111" width="18" height="18" rx="2"/>
    <rect x="502" y="132" width="18" height="18" rx="2"/><rect x="523" y="132" width="18" height="18" rx="2"/><rect x="544" y="132" width="18" height="18" rx="2"/><rect x="565" y="132" width="18" height="18" rx="2"/><rect x="586" y="132" width="18" height="18" rx="2"/><rect x="607" y="132" width="18" height="18" rx="2"/><rect x="628" y="132" width="18" height="18" rx="2"/><rect x="649" y="132" width="18" height="18" rx="2"/><rect x="670" y="132" width="18" height="18" rx="2"/><rect x="691" y="132" width="18" height="18" rx="2"/><rect x="712" y="132" width="18" height="18" rx="2"/><rect x="733" y="132" width="18" height="18" rx="2"/><rect x="754" y="132" width="18" height="18" rx="2"/><rect x="775" y="132" width="18" height="18" rx="2"/><rect x="796" y="132" width="18" height="18" rx="2"/><rect x="817" y="132" width="18" height="18" rx="2"/><rect x="838" y="132" width="18" height="18" rx="2"/><rect x="859" y="132" width="18" height="18" rx="2"/><rect x="880" y="132" width="18" height="18" rx="2"/><rect x="901" y="132" width="18" height="18" rx="2"/>
    <rect x="502" y="153" width="18" height="18" rx="2"/><rect x="523" y="153" width="18" height="18" rx="2"/><rect x="544" y="153" width="18" height="18" rx="2"/><rect x="565" y="153" width="18" height="18" rx="2"/><rect x="586" y="153" width="18" height="18" rx="2"/><rect x="607" y="153" width="18" height="18" rx="2"/><rect x="628" y="153" width="18" height="18" rx="2"/><rect x="649" y="153" width="18" height="18" rx="2"/><rect x="670" y="153" width="18" height="18" rx="2"/><rect x="691" y="153" width="18" height="18" rx="2"/><rect x="712" y="153" width="18" height="18" rx="2"/><rect x="733" y="153" width="18" height="18" rx="2"/><rect x="754" y="153" width="18" height="18" rx="2"/><rect x="775" y="153" width="18" height="18" rx="2"/><rect x="796" y="153" width="18" height="18" rx="2"/><rect x="817" y="153" width="18" height="18" rx="2"/><rect x="838" y="153" width="18" height="18" rx="2"/><rect x="859" y="153" width="18" height="18" rx="2"/><rect x="880" y="153" width="18" height="18" rx="2"/><rect x="901" y="153" width="18" height="18" rx="2"/>
    <rect x="502" y="174" width="18" height="18" rx="2"/><rect x="523" y="174" width="18" height="18" rx="2"/><rect x="544" y="174" width="18" height="18" rx="2"/><rect x="565" y="174" width="18" height="18" rx="2"/><rect x="586" y="174" width="18" height="18" rx="2"/><rect x="607" y="174" width="18" height="18" rx="2"/><rect x="628" y="174" width="18" height="18" rx="2"/><rect x="649" y="174" width="18" height="18" rx="2"/><rect x="670" y="174" width="18" height="18" rx="2"/><rect x="691" y="174" width="18" height="18" rx="2"/><rect x="712" y="174" width="18" height="18" rx="2"/><rect x="733" y="174" width="18" height="18" rx="2"/><rect x="754" y="174" width="18" height="18" rx="2"/><rect x="775" y="174" width="18" height="18" rx="2"/><rect x="796" y="174" width="18" height="18" rx="2"/><rect x="817" y="174" width="18" height="18" rx="2"/><rect x="838" y="174" width="18" height="18" rx="2"/><rect x="859" y="174" width="18" height="18" rx="2"/><rect x="880" y="174" width="18" height="18" rx="2"/><rect x="901" y="174" width="18" height="18" rx="2"/>
    <rect x="502" y="195" width="18" height="18" rx="2"/><rect x="523" y="195" width="18" height="18" rx="2"/><rect x="544" y="195" width="18" height="18" rx="2"/><rect x="565" y="195" width="18" height="18" rx="2"/><rect x="586" y="195" width="18" height="18" rx="2"/><rect x="607" y="195" width="18" height="18" rx="2"/><rect x="628" y="195" width="18" height="18" rx="2"/><rect x="649" y="195" width="18" height="18" rx="2"/><rect x="670" y="195" width="18" height="18" rx="2"/><rect x="691" y="195" width="18" height="18" rx="2"/><rect x="712" y="195" width="18" height="18" rx="2"/><rect x="733" y="195" width="18" height="18" rx="2"/><rect x="754" y="195" width="18" height="18" rx="2"/><rect x="775" y="195" width="18" height="18" rx="2"/><rect x="796" y="195" width="18" height="18" rx="2"/><rect x="817" y="195" width="18" height="18" rx="2"/><rect x="838" y="195" width="18" height="18" rx="2"/><rect x="859" y="195" width="18" height="18" rx="2"/><rect x="880" y="195" width="18" height="18" rx="2"/><rect x="901" y="195" width="18" height="18" rx="2"/>
    <rect x="502" y="216" width="18" height="18" rx="2"/><rect x="523" y="216" width="18" height="18" rx="2"/><rect x="544" y="216" width="18" height="18" rx="2"/><rect x="565" y="216" width="18" height="18" rx="2"/><rect x="586" y="216" width="18" height="18" rx="2"/><rect x="607" y="216" width="18" height="18" rx="2"/><rect x="628" y="216" width="18" height="18" rx="2"/><rect x="649" y="216" width="18" height="18" rx="2"/><rect x="670" y="216" width="18" height="18" rx="2"/><rect x="691" y="216" width="18" height="18" rx="2"/><rect x="712" y="216" width="18" height="18" rx="2"/><rect x="733" y="216" width="18" height="18" rx="2"/><rect x="754" y="216" width="18" height="18" rx="2"/><rect x="775" y="216" width="18" height="18" rx="2"/><rect x="796" y="216" width="18" height="18" rx="2"/><rect x="817" y="216" width="18" height="18" rx="2"/><rect x="838" y="216" width="18" height="18" rx="2"/><rect x="859" y="216" width="18" height="18" rx="2"/><rect x="880" y="216" width="18" height="18" rx="2"/><rect x="901" y="216" width="18" height="18" rx="2"/>
    <rect x="502" y="237" width="18" height="18" rx="2"/><rect x="523" y="237" width="18" height="18" rx="2"/><rect x="544" y="237" width="18" height="18" rx="2"/><rect x="565" y="237" width="18" height="18" rx="2"/><rect x="586" y="237" width="18" height="18" rx="2"/><rect x="607" y="237" width="18" height="18" rx="2"/><rect x="628" y="237" width="18" height="18" rx="2"/><rect x="649" y="237" width="18" height="18" rx="2"/><rect x="670" y="237" width="18" height="18" rx="2"/><rect x="691" y="237" width="18" height="18" rx="2"/><rect x="712" y="237" width="18" height="18" rx="2"/><rect x="733" y="237" width="18" height="18" rx="2"/><rect x="754" y="237" width="18" height="18" rx="2"/><rect x="775" y="237" width="18" height="18" rx="2"/><rect x="796" y="237" width="18" height="18" rx="2"/><rect x="817" y="237" width="18" height="18" rx="2"/><rect x="838" y="237" width="18" height="18" rx="2"/><rect x="859" y="237" width="18" height="18" rx="2"/><rect x="880" y="237" width="18" height="18" rx="2"/><rect x="901" y="237" width="18" height="18" rx="2"/>
    <rect x="502" y="258" width="18" height="18" rx="2"/><rect x="523" y="258" width="18" height="18" rx="2"/><rect x="544" y="258" width="18" height="18" rx="2"/><rect x="565" y="258" width="18" height="18" rx="2"/><rect x="586" y="258" width="18" height="18" rx="2"/><rect x="607" y="258" width="18" height="18" rx="2"/><rect x="628" y="258" width="18" height="18" rx="2"/><rect x="649" y="258" width="18" height="18" rx="2"/><rect x="670" y="258" width="18" height="18" rx="2"/><rect x="691" y="258" width="18" height="18" rx="2"/><rect x="712" y="258" width="18" height="18" rx="2"/><rect x="733" y="258" width="18" height="18" rx="2"/><rect x="754" y="258" width="18" height="18" rx="2"/><rect x="775" y="258" width="18" height="18" rx="2"/><rect x="796" y="258" width="18" height="18" rx="2"/><rect x="817" y="258" width="18" height="18" rx="2"/><rect x="838" y="258" width="18" height="18" rx="2"/><rect x="859" y="258" width="18" height="18" rx="2"/><rect x="880" y="258" width="18" height="18" rx="2"/><rect x="901" y="258" width="18" height="18" rx="2"/>
    <rect x="502" y="279" width="18" height="18" rx="2"/><rect x="523" y="279" width="18" height="18" rx="2"/><rect x="544" y="279" width="18" height="18" rx="2"/><rect x="565" y="279" width="18" height="18" rx="2"/><rect x="586" y="279" width="18" height="18" rx="2"/><rect x="607" y="279" width="18" height="18" rx="2"/><rect x="628" y="279" width="18" height="18" rx="2"/><rect x="649" y="279" width="18" height="18" rx="2"/><rect x="670" y="279" width="18" height="18" rx="2"/><rect x="691" y="279" width="18" height="18" rx="2"/><rect x="712" y="279" width="18" height="18" rx="2"/><rect x="733" y="279" width="18" height="18" rx="2"/><rect x="754" y="279" width="18" height="18" rx="2"/><rect x="775" y="279" width="18" height="18" rx="2"/><rect x="796" y="279" width="18" height="18" rx="2"/><rect x="817" y="279" width="18" height="18" rx="2"/><rect x="838" y="279" width="18" height="18" rx="2"/><rect x="859" y="279" width="18" height="18" rx="2"/><rect x="880" y="279" width="18" height="18" rx="2"/><rect x="901" y="279" width="18" height="18" rx="2"/>
    <rect x="502" y="300" width="18" height="18" rx="2"/><rect x="523" y="300" width="18" height="18" rx="2"/><rect x="544" y="300" width="18" height="18" rx="2"/><rect x="565" y="300" width="18" height="18" rx="2"/><rect x="586" y="300" width="18" height="18" rx="2"/><rect x="607" y="300" width="18" height="18" rx="2"/><rect x="628" y="300" width="18" height="18" rx="2"/><rect x="649" y="300" width="18" height="18" rx="2"/><rect x="670" y="300" width="18" height="18" rx="2"/><rect x="691" y="300" width="18" height="18" rx="2"/><rect x="712" y="300" width="18" height="18" rx="2"/><rect x="733" y="300" width="18" height="18" rx="2"/><rect x="754" y="300" width="18" height="18" rx="2"/><rect x="775" y="300" width="18" height="18" rx="2"/><rect x="796" y="300" width="18" height="18" rx="2"/><rect x="817" y="300" width="18" height="18" rx="2"/><rect x="838" y="300" width="18" height="18" rx="2"/><rect x="859" y="300" width="18" height="18" rx="2"/><rect x="880" y="300" width="18" height="18" rx="2"/><rect x="901" y="300" width="18" height="18" rx="2"/>
    <rect x="502" y="321" width="18" height="18" rx="2"/><rect x="523" y="321" width="18" height="18" rx="2"/><rect x="544" y="321" width="18" height="18" rx="2"/><rect x="565" y="321" width="18" height="18" rx="2"/><rect x="586" y="321" width="18" height="18" rx="2"/><rect x="607" y="321" width="18" height="18" rx="2"/><rect x="628" y="321" width="18" height="18" rx="2"/><rect x="649" y="321" width="18" height="18" rx="2"/><rect x="670" y="321" width="18" height="18" rx="2"/><rect x="691" y="321" width="18" height="18" rx="2"/><rect x="712" y="321" width="18" height="18" rx="2"/><rect x="733" y="321" width="18" height="18" rx="2"/><rect x="754" y="321" width="18" height="18" rx="2"/><rect x="775" y="321" width="18" height="18" rx="2"/><rect x="796" y="321" width="18" height="18" rx="2"/><rect x="817" y="321" width="18" height="18" rx="2"/><rect x="838" y="321" width="18" height="18" rx="2"/><rect x="859" y="321" width="18" height="18" rx="2"/><rect x="880" y="321" width="18" height="18" rx="2"/><rect x="901" y="321" width="18" height="18" rx="2"/>
    <rect x="502" y="342" width="18" height="18" rx="2"/><rect x="523" y="342" width="18" height="18" rx="2"/><rect x="544" y="342" width="18" height="18" rx="2"/><rect x="565" y="342" width="18" height="18" rx="2"/><rect x="586" y="342" width="18" height="18" rx="2"/><rect x="607" y="342" width="18" height="18" rx="2"/><rect x="628" y="342" width="18" height="18" rx="2"/><rect x="649" y="342" width="18" height="18" rx="2"/><rect x="670" y="342" width="18" height="18" rx="2"/><rect x="691" y="342" width="18" height="18" rx="2"/><rect x="712" y="342" width="18" height="18" rx="2"/><rect x="733" y="342" width="18" height="18" rx="2"/><rect x="754" y="342" width="18" height="18" rx="2"/><rect x="775" y="342" width="18" height="18" rx="2"/><rect x="796" y="342" width="18" height="18" rx="2"/><rect x="817" y="342" width="18" height="18" rx="2"/><rect x="838" y="342" width="18" height="18" rx="2"/><rect x="859" y="342" width="18" height="18" rx="2"/><rect x="880" y="342" width="18" height="18" rx="2"/><rect x="901" y="342" width="18" height="18" rx="2"/>
    <rect x="502" y="363" width="18" height="18" rx="2"/><rect x="523" y="363" width="18" height="18" rx="2"/><rect x="544" y="363" width="18" height="18" rx="2"/><rect x="565" y="363" width="18" height="18" rx="2"/><rect x="586" y="363" width="18" height="18" rx="2"/><rect x="607" y="363" width="18" height="18" rx="2"/><rect x="628" y="363" width="18" height="18" rx="2"/><rect x="649" y="363" width="18" height="18" rx="2"/><rect x="670" y="363" width="18" height="18" rx="2"/><rect x="691" y="363" width="18" height="18" rx="2"/><rect x="712" y="363" width="18" height="18" rx="2"/><rect x="733" y="363" width="18" height="18" rx="2"/><rect x="754" y="363" width="18" height="18" rx="2"/><rect x="775" y="363" width="18" height="18" rx="2"/><rect x="796" y="363" width="18" height="18" rx="2"/><rect x="817" y="363" width="18" height="18" rx="2"/><rect x="838" y="363" width="18" height="18" rx="2"/><rect x="859" y="363" width="18" height="18" rx="2"/><rect x="880" y="363" width="18" height="18" rx="2"/><rect x="901" y="363" width="18" height="18" rx="2"/>
    <rect x="502" y="384" width="18" height="18" rx="2"/><rect x="523" y="384" width="18" height="18" rx="2"/><rect x="544" y="384" width="18" height="18" rx="2"/><rect x="565" y="384" width="18" height="18" rx="2"/><rect x="586" y="384" width="18" height="18" rx="2"/><rect x="607" y="384" width="18" height="18" rx="2"/><rect x="628" y="384" width="18" height="18" rx="2"/><rect x="649" y="384" width="18" height="18" rx="2"/><rect x="670" y="384" width="18" height="18" rx="2"/><rect x="691" y="384" width="18" height="18" rx="2"/><rect x="712" y="384" width="18" height="18" rx="2"/><rect x="733" y="384" width="18" height="18" rx="2"/><rect x="754" y="384" width="18" height="18" rx="2"/><rect x="775" y="384" width="18" height="18" rx="2"/><rect x="796" y="384" width="18" height="18" rx="2"/><rect x="817" y="384" width="18" height="18" rx="2"/><rect x="838" y="384" width="18" height="18" rx="2"/><rect x="859" y="384" width="18" height="18" rx="2"/><rect x="880" y="384" width="18" height="18" rx="2"/><rect x="901" y="384" width="18" height="18" rx="2"/>
    <rect x="502" y="405" width="18" height="18" rx="2"/><rect x="523" y="405" width="18" height="18" rx="2"/><rect x="544" y="405" width="18" height="18" rx="2"/><rect x="565" y="405" width="18" height="18" rx="2"/><rect x="586" y="405" width="18" height="18" rx="2"/><rect x="607" y="405" width="18" height="18" rx="2"/><rect x="628" y="405" width="18" height="18" rx="2"/><rect x="649" y="405" width="18" height="18" rx="2"/><rect x="670" y="405" width="18" height="18" rx="2"/><rect x="691" y="405" width="18" height="18" rx="2"/><rect x="712" y="405" width="18" height="18" rx="2"/><rect x="733" y="405" width="18" height="18" rx="2"/><rect x="754" y="405" width="18" height="18" rx="2"/><rect x="775" y="405" width="18" height="18" rx="2"/><rect x="796" y="405" width="18" height="18" rx="2"/><rect x="817" y="405" width="18" height="18" rx="2"/><rect x="838" y="405" width="18" height="18" rx="2"/><rect x="859" y="405" width="18" height="18" rx="2"/><rect x="880" y="405" width="18" height="18" rx="2"/><rect x="901" y="405" width="18" height="18" rx="2"/>
    <rect x="502" y="426" width="18" height="18" rx="2"/><rect x="523" y="426" width="18" height="18" rx="2"/><rect x="544" y="426" width="18" height="18" rx="2"/><rect x="565" y="426" width="18" height="18" rx="2"/><rect x="586" y="426" width="18" height="18" rx="2"/><rect x="607" y="426" width="18" height="18" rx="2"/><rect x="628" y="426" width="18" height="18" rx="2"/><rect x="649" y="426" width="18" height="18" rx="2"/><rect x="670" y="426" width="18" height="18" rx="2"/><rect x="691" y="426" width="18" height="18" rx="2"/><rect x="712" y="426" width="18" height="18" rx="2"/><rect x="733" y="426" width="18" height="18" rx="2"/><rect x="754" y="426" width="18" height="18" rx="2"/><rect x="775" y="426" width="18" height="18" rx="2"/><rect x="796" y="426" width="18" height="18" rx="2"/><rect x="817" y="426" width="18" height="18" rx="2"/><rect x="838" y="426" width="18" height="18" rx="2"/><rect x="859" y="426" width="18" height="18" rx="2"/><rect x="880" y="426" width="18" height="18" rx="2"/><rect x="901" y="426" width="18" height="18" rx="2"/>
    <rect x="502" y="447" width="18" height="18" rx="2"/><rect x="523" y="447" width="18" height="18" rx="2"/><rect x="544" y="447" width="18" height="18" rx="2"/><rect x="565" y="447" width="18" height="18" rx="2"/><rect x="586" y="447" width="18" height="18" rx="2"/><rect x="607" y="447" width="18" height="18" rx="2"/><rect x="628" y="447" width="18" height="18" rx="2"/><rect x="649" y="447" width="18" height="18" rx="2"/><rect x="670" y="447" width="18" height="18" rx="2"/><rect x="691" y="447" width="18" height="18" rx="2"/><rect x="712" y="447" width="18" height="18" rx="2"/><rect x="733" y="447" width="18" height="18" rx="2"/><rect x="754" y="447" width="18" height="18" rx="2"/><rect x="775" y="447" width="18" height="18" rx="2"/><rect x="796" y="447" width="18" height="18" rx="2"/><rect x="817" y="447" width="18" height="18" rx="2"/><rect x="838" y="447" width="18" height="18" rx="2"/><rect x="859" y="447" width="18" height="18" rx="2"/><rect x="880" y="447" width="18" height="18" rx="2"/><rect x="901" y="447" width="18" height="18" rx="2"/>
    <rect x="502" y="468" width="18" height="18" rx="2"/><rect x="523" y="468" width="18" height="18" rx="2"/><rect x="544" y="468" width="18" height="18" rx="2"/><rect x="565" y="468" width="18" height="18" rx="2"/><rect x="586" y="468" width="18" height="18" rx="2"/><rect x="607" y="468" width="18" height="18" rx="2"/><rect x="628" y="468" width="18" height="18" rx="2"/><rect x="649" y="468" width="18" height="18" rx="2"/><rect x="670" y="468" width="18" height="18" rx="2"/><rect x="691" y="468" width="18" height="18" rx="2"/><rect x="712" y="468" width="18" height="18" rx="2"/><rect x="733" y="468" width="18" height="18" rx="2"/><rect x="754" y="468" width="18" height="18" rx="2"/><rect x="775" y="468" width="18" height="18" rx="2"/><rect x="796" y="468" width="18" height="18" rx="2"/><rect x="817" y="468" width="18" height="18" rx="2"/><rect x="838" y="468" width="18" height="18" rx="2"/><rect x="859" y="468" width="18" height="18" rx="2"/><rect x="880" y="468" width="18" height="18" rx="2"/><rect x="901" y="468" width="18" height="18" rx="2"/>
    <rect x="502" y="489" width="18" height="18" rx="2"/><rect x="523" y="489" width="18" height="18" rx="2"/><rect x="544" y="489" width="18" height="18" rx="2"/><rect x="565" y="489" width="18" height="18" rx="2"/><rect x="586" y="489" width="18" height="18" rx="2"/><rect x="607" y="489" width="18" height="18" rx="2"/><rect x="628" y="489" width="18" height="18" rx="2"/><rect x="649" y="489" width="18" height="18" rx="2"/><rect x="670" y="489" width="18" height="18" rx="2"/><rect x="691" y="489" width="18" height="18" rx="2"/><rect x="712" y="489" width="18" height="18" rx="2"/><rect x="733" y="489" width="18" height="18" rx="2"/><rect x="754" y="489" width="18" height="18" rx="2"/><rect x="775" y="489" width="18" height="18" rx="2"/><rect x="796" y="489" width="18" height="18" rx="2"/><rect x="817" y="489" width="18" height="18" rx="2"/><rect x="838" y="489" width="18" height="18" rx="2"/><rect x="859" y="489" width="18" height="18" rx="2"/><rect x="880" y="489" width="18" height="18" rx="2"/><rect x="901" y="489" width="18" height="18" rx="2"/>
  </g>

  <!-- ── Snake: tail→right, turns up, turns right, head facing right ── -->
  <!-- Horizontal tail segment (row 15, cols 1–6) -->
  <rect x="523" y="405" width="16" height="16" rx="3" fill="#5DCAA5"/>
  <rect x="544" y="405" width="16" height="16" rx="3" fill="#5DCAA5"/>
  <rect x="565" y="405" width="16" height="16" rx="3" fill="#5DCAA5"/>
  <rect x="586" y="405" width="16" height="16" rx="3" fill="#5DCAA5"/>
  <rect x="607" y="405" width="16" height="16" rx="3" fill="#5DCAA5"/>
  <rect x="628" y="405" width="16" height="16" rx="3" fill="#5DCAA5"/>
  <!-- Corner piece (col 7) -->
  <rect x="649" y="405" width="16" height="16" rx="3" fill="#5DCAA5"/>
  <!-- Vertical segment going up (col 7, rows 14→8) -->
  <rect x="649" y="384" width="16" height="16" rx="3" fill="#5DCAA5"/>
  <rect x="649" y="363" width="16" height="16" rx="3" fill="#5DCAA5"/>
  <rect x="649" y="342" width="16" height="16" rx="3" fill="#5DCAA5"/>
  <rect x="649" y="321" width="16" height="16" rx="3" fill="#5DCAA5"/>
  <rect x="649" y="300" width="16" height="16" rx="3" fill="#5DCAA5"/>
  <rect x="649" y="279" width="16" height="16" rx="3" fill="#5DCAA5"/>
  <!-- Corner piece top (col 7, row 7) -->
  <rect x="649" y="258" width="16" height="16" rx="3" fill="#5DCAA5"/>
  <!-- Horizontal segment right (row 7, cols 8–12) -->
  <rect x="670" y="258" width="16" height="16" rx="3" fill="#5DCAA5"/>
  <rect x="691" y="258" width="16" height="16" rx="3" fill="#5DCAA5"/>
  <rect x="712" y="258" width="16" height="16" rx="3" fill="#5DCAA5"/>
  <rect x="733" y="258" width="16" height="16" rx="3" fill="#5DCAA5"/>
  <!-- Head -->
  <rect x="754" y="258" width="16" height="16" rx="3" fill="#1D9E75"/>

  <!-- Food -->
  <circle cx="838" cy="174" r="9" fill="#D85A30"/>
  <!-- Subtle glow ring on food -->
  <circle cx="838" cy="174" r="13" fill="none" stroke="#D85A30" stroke-width="1.5" opacity="0.3"/>

  <!-- ── On-screen control hint ── -->
  <rect x="500" y="522" width="420" height="96" rx="8" fill="#161616"/>

  <!-- Up button -->
  <rect x="685" y="528" width="36" height="36" rx="6" fill="#242424" stroke="#333" stroke-width="1"/>
  <text x="703" y="552" font-family="system-ui" font-size="16" fill="#1D9E75" text-anchor="middle">↑</text>

  <!-- Left button -->
  <rect x="641" y="566" width="36" height="36" rx="6" fill="#242424" stroke="#333" stroke-width="1"/>
  <text x="659" y="590" font-family="system-ui" font-size="16" fill="#9a9a9a" text-anchor="middle">←</text>

  <!-- Down button -->
  <rect x="685" y="566" width="36" height="36" rx="6" fill="#242424" stroke="#333" stroke-width="1"/>
  <text x="703" y="590" font-family="system-ui" font-size="16" fill="#9a9a9a" text-anchor="middle">↓</text>

  <!-- Right button (highlighted — snake moving right) -->
  <rect x="729" y="566" width="36" height="36" rx="6" fill="#242424" stroke="#333" stroke-width="1"/>
  <text x="747" y="590" font-family="system-ui" font-size="16" fill="#9a9a9a" text-anchor="middle">→</text>

  <text x="800" y="548" font-family="system-ui,-apple-system,sans-serif" font-size="12" fill="#444" text-anchor="start">or use</text>
  <text x="800" y="568" font-family="system-ui,-apple-system,sans-serif" font-size="12" fill="#444" text-anchor="start">arrow</text>
  <text x="800" y="588" font-family="system-ui,-apple-system,sans-serif" font-size="12" fill="#444" text-anchor="start">keys</text>

</svg>
